<?xml version="1.0" encoding="UTF-8" standalone="no"?>
<!-- Created using Karbon, part of Calligra: http://www.calligra.org/karbon -->

<svg
   xmlns:dc="http://purl.org/dc/elements/1.1/"
   xmlns:cc="http://creativecommons.org/ns#"
   xmlns:rdf="http://www.w3.org/1999/02/22-rdf-syntax-ns#"
   xmlns:svg="http://www.w3.org/2000/svg"
   xmlns="http://www.w3.org/2000/svg"
   xmlns:sodipodi="http://sodipodi.sourceforge.net/DTD/sodipodi-0.dtd"
   xmlns:inkscape="http://www.inkscape.org/namespaces/inkscape"
   width="500"
   height="500"
   id="svg2"
   version="1.1"
   inkscape:version="0.92.3 (2405546, 2018-03-11)"
   sodipodi:docname="leo.svg"
   inkscape:export-filename="leo.png"
   inkscape:export-xdpi="7.6799998"
   inkscape:export-ydpi="7.6799998">
  <metadata
     id="metadata13">
    <rdf:RDF>
      <cc:Work
         rdf:about="">
        <dc:format>image/svg+xml</dc:format>
        <dc:type
           rdf:resource="http://purl.org/dc/dcmitype/StillImage" />
        <dc:title />
      </cc:Work>
    </rdf:RDF>
  </metadata>
  <sodipodi:namedview
     pagecolor="#ffffff"
     bordercolor="#666666"
     borderopacity="1"
     objecttolerance="10"
     gridtolerance="10"
     guidetolerance="10"
     inkscape:pageopacity="0"
     inkscape:pageshadow="2"
     inkscape:window-width="1680"
     inkscape:window-height="965"
     id="namedview11"
     showgrid="false"
     inkscape:zoom="0.70710678"
     inkscape:cx="318.87289"
     inkscape:cy="190.94284"
     inkscape:window-x="3360"
     inkscape:window-y="0"
     inkscape:window-maximized="1"
     inkscape:current-layer="svg2"
     units="px" />
  <defs
     id="defs4" />
  <g
     id="g855"
     transform="matrix(1.0309189,0,0,1.0309189,-21.361811,6.8970311)"
     style="stroke-width:0.97000837">
    <g
       transform="translate(1056.8725,-29.134644)"
       id="g4210"
       style="stroke-width:0.97000837">
      <g
         id="g4171"
         style="stroke-width:0.97000837">
        <path
           inkscape:connector-curvature="0"
           id="path4169"
           d="m -864.90027,506.85941 c -14.21866,-8.208 -17.48053,-24.9184 -30.1216,-33.53493 -12.09322,-19.3216 -22.16586,18.31253 -37.17898,0.77227 -22.43286,-9.8304 -18.35979,-48.6304 -40.60214,-53.62347 -11.82634,3.87307 -22.20128,39.29067 -28.66151,12.55147 -3.6458,-18.31787 -16.7462,-48.176 6.53138,-58.28267 18.20448,-14.13867 -31.08008,-33.07307 -5.43398,-49.6992 20.24987,-13.25973 -25.6768,-31.7504 1.65689,-46.66133 13.44056,-13.39627 21.73592,-26.81814 27.32845,-42.05974 25.96747,-11.24586 8.42059,-37.4912 -4.49707,-51.5584 -9.67594,-24.25706 14.09056,-38.68586 27.81984,-54.01813 15.18806,-18.73205 0.58752,-41.556478 -1.6737,-62.047358 -6.60416,-19.386027 2.66773,-46.741967 26.26624,-46.246813 13.44533,0.464493 38.15232,-0.735487 40.89045,15.642973 -0.60373,14.505067 -2.3616,30.944107 9.5136,41.018667 15.99787,-10.403414 32.11307,-25.41024 51.90187,-30.292694 16.8352,-5.753813 31.9328,13.058987 46.176,-2.648213 22.31466,-6.378773 31.19466,21.39392 50.88426,24.79712 12.74987,4.642133 31.68214,17.77248 36.50774,-1.280853 4.40213,-19.919467 27.04213,-38.498764 42.49493,-15.17088 14.13333,13.780053 30.52267,41.415573 7.97013,55.803301 -7.53386,5.88736 -14.9376,8.44672 -22.55146,12.10187 -9.8272,11.67435 21.1392,30.04981 -1.08374,43.68715 -11.61706,18.36266 20.38507,32.65066 25.61387,50.736 9.09973,21.7184 27.80693,-16.1984 44.4096,2.768 17.36427,11.41866 -6.01067,15.3472 -15.29173,8.1824 -30.0544,9.07306 12.50986,24.86293 1.9008,44.9856 -3.95734,16.0512 25.39306,-1.37814 25.2672,15.25546 -2.61334,11.9712 -24.5856,-0.85013 -25.57654,11.34294 -9.83786,17.71413 -28.5728,28.32106 -41.50293,43.84746 -14.52267,16.09494 -39.08907,45.5808 -11.1616,61.712 8.54507,8.768 17.9008,18.53654 23.2992,29.2224 2.58773,14.91734 -10.1792,42.5728 -26.51947,25.43467 -18.63253,-23.13813 -25.2896,18.144 -35.21386,28.768 -14.92374,19.37707 -37.856,-3.52107 -48.36374,-16.9952 -5.5872,-8.37547 -20.60586,-5.82507 -27.6864,-1.48693 -10.6912,14.9088 -28.73706,32.13226 -41.3728,9.16906 -22.46186,-12.94506 -30.31786,34.1408 -51.9392,27.808 z"
           style="fill:#f8d313;fill-opacity:1;stroke:none;stroke-width:1.0346756" />
        <path
           inkscape:connector-curvature="0"
           id="path4167"
           d="m -850.43413,488.61835 c 16.42346,-16.24854 32.27093,-33.42614 49.7856,-48.13654 17.61493,-9.8176 3.34826,15.86027 -5.48374,20.01387 -13.33653,14.84267 14.416,31.74293 19.69707,10.41067 11.0912,-10.61334 27.6128,-36.34774 42.32853,-29.51894 1.4432,10.832 -16.20586,15.13067 1.16267,19.34827 12.63147,14.23467 39.34507,41.21173 47.6192,7.91253 9.90507,-15.62026 14.8512,-31.2352 0.67627,-45.64373 15.984,-8.46507 31.7472,39.2832 47.95733,22.68693 2.61653,-25.97333 -27.16053,-37.85066 -41.23947,-55.3312 -16.60693,-2.42773 -34.8544,-3.2032 -47.2736,-17.73546 -14.09066,19.088 -39.16906,18.09173 -60.18133,13.3088 -20.1536,-10.3488 -31.53067,-35.49227 -57.83787,-31.93067 -23.78133,-8.82453 -52.93962,-16.24213 -63.89184,-42.00853 -16.46464,-2.79787 -32.56832,15.9328 -47.64853,23.97226 -19.96587,4.944 -20.30976,53.6896 2.49952,30.03627 6.85547,-6.51307 26.29131,-35.3472 29.34784,-16.0544 -16.40757,12.8544 -29.40117,42.3232 -53.66869,35.93173 -19.49033,1.33547 -14.08453,39.4816 -4.71531,41.8432 7.35264,-15.5328 27.46709,-34.77866 35.71179,-9.3024 9.40192,15.07094 13.22826,35.1104 26.93418,47.824 24.42518,-5.1904 8.22614,-30.50453 -1.33941,-41.68853 23.47744,-13.22133 27.92267,30.3232 41.99819,41.3056 10.3616,-5.8592 19.57333,-40.13973 35.08053,-27.68213 -8.66027,17.08373 -33.7344,38.93226 -9.07947,57.6384 3.41014,5.28 8.25494,-6.77227 11.56054,-7.2 z"
           style="fill:#f8d313;fill-opacity:1;stroke:none;stroke-width:1.0346756" />
        <path
           inkscape:connector-curvature="0"
           id="path4165"
           d="m -721.4336,432.22368 c -13.19147,-2.22293 -32.13547,-36.21013 -8.576,-23.21493 4.6368,3.58826 31.72693,30.47573 8.576,23.21493 z"
           style="fill:#f8d313;fill-opacity:1;stroke:none;stroke-width:1.0346756" />
        <path
           inkscape:connector-curvature="0"
           id="path4163"
           d="m -833.6576,418.22475 c -8.5152,-11.26507 6.52587,-43.50294 12.01387,-18.12587 3.61173,7.1488 -1.63307,27.0528 -12.01387,18.12587 z"
           style="fill:#f8d313;fill-opacity:1;stroke:none;stroke-width:1.0346756" />
        <path
           inkscape:connector-curvature="0"
           id="path4161"
           d="m -897.8912,401.88235 c -2.464,-9.27894 23.6064,-40.3968 29.11893,-22.2112 -4.8864,7.92 -19.80693,24.56746 -29.11893,22.2112 z"
           style="fill:#f8d313;fill-opacity:1;stroke:none;stroke-width:1.0346756" />
        <path
           inkscape:connector-curvature="0"
           id="path4159"
           d="m -677.12853,378.20875 c 2.41066,-12.20907 20.68373,-28.10454 16.43733,-36.2272 -20.4928,-1.40587 -46.57707,5.11466 -59.46987,-15.91894 -6.3904,5.968 -11.95413,18.43734 -23.22666,15.09547 -11.2992,-0.46187 -23.09974,0.91307 -34.096,-0.65813 -13.95307,-6.8064 -23.97974,-18.98667 -36.16534,-28.128 -22.7168,-0.6016 -41.58186,-12.83947 -61.63946,-21.53494 -22.4224,-6.58773 -31.36747,-37.696 -9.86667,-51.23306 9.63307,-17.51467 25.54667,1.0944 8.13653,9.42826 -24.69866,20.65067 12.48534,32.96214 28.38507,41.2224 20.89387,9.61387 46.9792,7.2416 61.1072,29.14667 12.736,13.5872 32.10027,7.77493 48.5728,8.9568 20.29547,-12.16747 13.36,-37.75147 -8.1152,-44.04907 -5.33867,-10.37013 -40.1888,-30.5056 -19.8944,-37.248 9.73227,3.59574 13.744,18.61334 25.58507,15.69707 17.32053,0 34.64106,0 51.9616,0 5.53173,-8.43733 28.72533,-25.99893 21.25866,-5.38347 -13.47626,18.4992 -41.9488,29.75467 -45.52533,52.176 4.63467,24.43734 34.20587,17.36107 52.29973,18.7904 20.8768,3.2704 36.23147,-17.18506 45.19574,-32.38933 -14.224,-0.75093 -57.72267,-2.36907 -44.39574,-24.0416 13.4016,4.1536 31.28534,12.02453 44.69974,5.56587 6.3776,-19.4592 -12.304,-41.14667 -23.63094,-14.48214 -22.30506,3.8688 -1.77173,-21.7024 3.2768,-27.68426 -11.07946,-15.4464 -20.54613,-32.15254 -34.7392,-45.21494 -25.88053,-15.78773 23.7248,-35.2512 0.73814,-51.57653 -16.78934,-24.37024 20.99626,-30.76288 32.57066,-43.854078 3.72267,-16.30304 -26.82986,-55.528213 -35.13706,-27.675627 -6.2112,22.256 -27.1904,33.00992 -44.87467,15.943467 -17.08693,-5.380907 -32.24213,-15.055147 -46.97067,-24.82464 -15.4048,1.273493 -27.93386,14.759573 -43.71626,2.47072 -24.71787,-1.838187 -40.17494,19.55328 -59.34187,30.595413 -4.5152,15.782715 -22.288,14.542615 -17.99147,-2.86368 -2.43093,-16.935573 -10.84266,-32.234773 -10.16533,-50.388906 -19.41717,-10.334444 -51.36523,-4.53888 -44.10987,24.578773 0.99723,18.124053 7.42347,32.553387 24.65088,36.858027 16.35179,11.435841 -3.47264,24.833171 -10.18037,7.110511 -8.76021,6.67829 -5.60843,32.52895 -22.49237,40.14495 -12.63264,8.21654 -28.05398,32.9984 -8.10262,40.83414 13.40363,-5.64694 25.93238,-43.13387 40.5328,-28.36587 -5.80746,18.0128 -33.31328,24.37973 -33.04213,45.54347 -0.37941,26.12693 19.84331,-2.16854 30.92437,-2.54614 4.06443,20.74027 -25.5905,29.20747 -40.58346,34.98987 -12.30006,15.32693 22.2496,15.632 24.5345,32.21653 0.80566,26.92374 -26.86144,-22.66133 -40.49994,-3.4496 -12.5919,11.40694 -31.76039,30.128 -6.44096,40.66134 3.49824,13.86133 9.82592,24.624 21.61312,9.5776 19.20341,-7.93387 43.64693,-35.17014 55.9168,-4.11627 15.38165,17.78667 39.52138,27.77707 62.21045,30.86933 26.38613,0.14614 35.97653,31.72587 61.2,33.6224 19.32907,5.6896 32.4736,-11.2288 45.9872,-16.64106 7.99787,6.5088 15.728,16.3712 27.48587,13.34933 10.5568,-1.264 20.69546,1.38987 29.1328,5.05067 z"
           style="fill:#f8d313;fill-opacity:1;stroke:none;stroke-width:1.0346756" />
        <path
           inkscape:connector-curvature="0"
           id="path4157"
           d="m -837.74507,276.14475 c -11.9808,1.70986 -31.11466,-20.64214 -10.53226,-21.168 15.1936,17.61493 47.5648,-2.7744 58.37226,18.08746 -11.24586,8.62827 -33.7056,2.53654 -47.84,3.08054 z"
           style="fill:#f8d313;fill-opacity:1;stroke:none;stroke-width:1.0346756" />
        <path
           inkscape:connector-curvature="0"
           id="path4155"
           d="m -811.83253,246.23541 c -14.8768,-9.664 -40.55147,-27.91466 -37.4336,-45.344 18.93546,14.0608 38.63573,28.5248 58.95253,38.6848 1.46667,11.4848 -15.01867,8.28587 -21.51893,6.6592 z"
           style="fill:#f8d313;fill-opacity:1;stroke:none;stroke-width:1.0346756" />
        <path
           inkscape:connector-curvature="0"
           id="path4153"
           d="m -815.60427,181.59328 c -23.68533,-4.3936 -21.37173,-30.8192 -19.68853,-48.96853 5.264,-24.06187 42.16533,-29.4016 54.00853,-7.56832 7.9904,18.05365 7.98187,45.65792 -12.39466,56.01098 -6.75947,2.6912 -14.8896,1.51467 -21.92534,0.52587 z"
           style="fill:#f8d313;fill-opacity:1;stroke:none;stroke-width:1.0346756" />
        <path
           inkscape:connector-curvature="0"
           id="path4151"
           d="m -805.70027,164.64821 c -0.65066,-10.7264 3.7024,-24.46186 16.51094,-20.29013 10.20586,-6.50773 -8.71574,-29.37931 -22.04054,-23.44949 -13.76426,2.20832 -17.61706,21.07082 -15.80373,33.36949 -2.2336,8.064 4.24533,13.09973 8.5824,18.88 7.91467,-0.3264 15.6,2.8512 12.75093,-8.50987 z"
           style="fill:#f8d313;fill-opacity:1;stroke:none;stroke-width:1.0346756" />
        <path
           inkscape:connector-curvature="0"
           id="path4149"
           d="m -745.77813,177.46315 c -17.7792,-12.8 -15.49014,-45.82187 0.8544,-59.41504 24.49706,-19.067841 52.08426,12.18624 44.65813,37.7297 -0.31253,22.10027 -28.3584,33.19787 -45.51253,21.68534 z"
           style="fill:#f8d313;fill-opacity:1;stroke:none;stroke-width:1.0346756" />
        <path
           inkscape:connector-curvature="0"
           id="path4147"
           d="m -727.8336,165.71488 c -0.39893,-10.49707 4.08747,-23.19787 16.37867,-19.22347 9.89546,-6.62186 -8.25387,-30.92821 -21.5712,-24.53322 -12.08214,1.31338 -18.29014,17.56789 -16.1408,28.84469 -2.40534,10.28693 4.512,21.94667 15.56586,22.3552 7.37814,1.42187 5.7056,-1.5456 5.76747,-7.4432 z"
           style="fill:#f8d313;fill-opacity:1;stroke:none;stroke-width:1.0346756" />
        <path
           inkscape:connector-curvature="0"
           id="path4145"
           d="m -840.51733,115.01685 c 2.30186,-21.561061 27.38346,-31.335888 47.0144,-32.159781 17.77173,13.91968 -24.9536,8.562346 -29.60534,21.333011 -5.24053,3.22432 -9.21706,17.22059 -17.40906,10.82677 z"
           style="fill:#f8d313;fill-opacity:1;stroke:none;stroke-width:1.0346756" />
        <path
           inkscape:connector-curvature="0"
           id="path4143"
           d="m -716.64853,108.75253 c -7.57654,-8.07125 -46.50774,-9.138341 -31.92427,-22.712528 11.93067,5.002667 47.10187,7.809067 37.55627,25.109968 l -2.9856,-0.17258 z"
           style="fill:#f8d313;fill-opacity:1;stroke:none;stroke-width:1.0346756" />
        <path
           inkscape:connector-curvature="0"
           id="path4141"
           d="m -679.072,99.964269 c -4.352,-11.771094 23.3056,-34.30176 19.77067,-11.187947 -4.14827,4.701547 -13.19894,12.587628 -19.77067,11.187947 z"
           style="fill:#f8d313;fill-opacity:1;stroke:none;stroke-width:1.0346756" />
        <path
           inkscape:connector-curvature="0"
           id="path4139"
           d="m -909.63765,86.219629 c -22.12043,-0.698774 -4.15414,-44.071787 2.11445,-19.31488 -8.92501,7.045226 19.7408,22.455786 -2.11445,19.31488 z"
           style="fill:#f8d313;fill-opacity:1;stroke:none;stroke-width:1.0346756" />
        <path
           inkscape:connector-curvature="0"
           id="path3234-2"
           d="m -983.98848,341.22208 c 15.73013,-11.4656 -17.34262,-24.53013 -12.26347,-1.80373 2.35392,9.1776 7.24256,8.98453 12.26347,1.80373 z"
           style="fill:#f8d313;fill-opacity:1;stroke:none;stroke-width:1.0346756" />
      </g>
      <ellipse
         ry="30"
         rx="25.866667"
         cy="147.40137"
         cx="-806.40002"
         style="fill:#ffffff;fill-opacity:1;fill-rule:nonzero;stroke:none;stroke-width:1.07612765"
         id="path4190" />
      <ellipse
         ry="30"
         rx="25.866667"
         cy="148.06804"
         cx="-728.53333"
         style="fill:#ffffff;fill-opacity:1;fill-rule:nonzero;stroke:none;stroke-width:1.07612765"
         id="path4190-8" />
    </g>
    <path
       id="path3234"
       d="m 191.97227,477.72477 c -14.21867,-8.208 -17.48054,-24.9184 -30.1216,-33.53493 -12.09323,-19.3216 -22.16587,18.31253 -37.17899,0.77227 -22.43285,-9.8304 -18.35978,-48.6304 -40.602129,-53.62347 -11.826347,3.87307 -22.20128,39.29067 -28.661483,12.55147 -3.645802,-18.31787 -16.746229,-48.176 6.53135,-58.28267 18.20448,-14.13867 -31.080107,-33.07307 -5.433984,-49.6992 20.249877,-13.25973 -25.676843,-31.7504 1.656896,-46.66133 13.440554,-13.39627 21.735914,-26.81814 27.328448,-42.05974 25.967462,-11.24586 8.420586,-37.4912 -4.497067,-51.5584 -9.675947,-24.25706 14.09056,-38.68586 27.819839,-54.01813 15.18805,-18.732053 0.58752,-41.556484 -1.67371,-62.047364 -6.60416,-19.386027 2.66773,-46.741966 26.26624,-46.246812 13.44533,0.464493 38.15232,-0.735487 40.89045,15.642972 -0.60373,14.505067 -2.3616,30.944107 9.5136,41.018667 15.99787,-10.403414 32.11307,-25.41024 51.90187,-30.292694 16.8352,-5.753813 31.9328,13.058987 46.176,-2.648213 22.31467,-6.378773 31.19467,21.39392 50.88427,24.79712 12.74986,4.642133 31.68213,17.77248 36.50773,-1.280853 4.40213,-19.919467 27.04213,-38.498763 42.49493,-15.17088 14.13334,13.780053 30.52267,41.415574 7.97014,55.803304 -7.53387,5.88736 -14.9376,8.44672 -22.55147,12.10187 -9.8272,11.674353 21.1392,30.049813 -1.08373,43.687153 -11.61707,18.36266 20.38506,32.65066 25.61386,50.736 9.09974,21.7184 27.80694,-16.1984 44.4096,2.768 17.36427,11.41866 -6.01066,15.3472 -15.29173,8.1824 -30.0544,9.07306 12.50987,24.86293 1.9008,44.9856 -3.95733,16.0512 25.39307,-1.37814 25.2672,15.25546 -2.61333,11.9712 -24.5856,-0.85013 -25.57653,11.34294 -9.83787,17.71413 -28.5728,28.32106 -41.50294,43.84746 -14.52266,16.09494 -39.08906,45.5808 -11.1616,61.712 8.54507,8.768 17.9008,18.53654 23.2992,29.2224 2.58774,14.91734 -10.1792,42.5728 -26.51946,25.43467 -18.63254,-23.13813 -25.2896,18.144 -35.21387,28.768 -14.92373,19.37707 -37.856,-3.52107 -48.36373,-16.9952 -5.5872,-8.37547 -20.60587,-5.82507 -27.6864,-1.48693 -10.6912,14.9088 -28.73707,32.13226 -41.3728,9.16906 -22.46187,-12.94506 -30.31787,34.1408 -51.9392,27.808 z m 14.46613,-18.24106 c 16.42347,-16.24854 32.27093,-33.42614 49.7856,-48.13654 17.61493,-9.8176 3.34827,15.86027 -5.48373,20.01387 -13.33654,14.84267 14.416,31.74293 19.69706,10.41067 11.0912,-10.61334 27.6128,-36.34774 42.32854,-29.51894 1.4432,10.832 -16.20587,15.13067 1.16266,19.34827 12.63147,14.23467 39.34507,41.21173 47.6192,7.91253 9.90507,-15.62026 14.8512,-31.2352 0.67627,-45.64373 15.984,-8.46507 31.7472,39.2832 47.95733,22.68693 2.61654,-25.97333 -27.16053,-37.85066 -41.23946,-55.3312 -16.60694,-2.42773 -34.8544,-3.2032 -47.2736,-17.73546 -14.09067,19.088 -39.16907,18.09173 -60.18134,13.3088 -20.1536,-10.3488 -31.53066,-35.49227 -57.83786,-31.93067 -23.78134,-8.82453 -52.93963,-16.24213 -63.89184,-42.00853 -16.46464,-2.79787 -32.56832,15.9328 -47.648532,23.97226 -19.965867,4.944 -20.30976,53.6896 2.49952,30.03627 6.855462,-6.51307 26.291302,-35.3472 29.347832,-16.0544 -16.40757,12.8544 -29.401166,42.3232 -53.668686,35.93173 -19.490304,1.33547 -14.084522,39.4816 -4.715306,41.8432 7.35264,-15.5328 27.467093,-34.77866 35.711782,-9.3024 9.40192,15.07094 13.22827,35.1104 26.93419,47.824 24.42517,-5.1904 8.22613,-30.50453 -1.33942,-41.68853 23.47744,-13.22133 27.92267,30.3232 41.99819,41.3056 10.3616,-5.8592 19.57333,-40.13973 35.08053,-27.68213 -8.66026,17.08373 -33.7344,38.93226 -9.07946,57.6384 3.41013,5.28 8.25493,-6.77227 11.56053,-7.2 z m 129.00053,-56.39467 c -13.19146,-2.22293 -32.13546,-36.21013 -8.576,-23.21493 4.6368,3.58826 31.72694,30.47573 8.576,23.21493 z m -112.224,-13.99893 c -8.5152,-11.26507 6.52587,-43.50294 12.01387,-18.12587 3.61173,7.1488 -1.63307,27.0528 -12.01387,18.12587 z m -64.2336,-16.3424 c -2.464,-9.27894 23.6064,-40.3968 29.11894,-22.2112 -4.8864,7.92 -19.80694,24.56746 -29.11894,22.2112 z M 379.744,349.07411 c 2.41067,-12.20907 20.68373,-28.10454 16.43733,-36.2272 -20.4928,-1.40587 -46.57706,5.11466 -59.46986,-15.91894 -6.3904,5.968 -11.95414,18.43734 -23.22667,15.09547 -11.2992,-0.46187 -23.09973,0.91307 -34.096,-0.65813 -13.95307,-6.8064 -23.97973,-18.98667 -36.16533,-28.128 -22.7168,-0.6016 -41.58187,-12.83947 -61.63947,-21.53494 -22.4224,-6.58773 -31.36747,-37.696 -9.86667,-51.23306 9.63307,-17.51467 25.54667,1.0944 8.13654,9.42826 -24.69867,20.65067 12.48533,32.96214 28.38506,41.2224 20.89387,9.61387 46.9792,7.2416 61.1072,29.14667 12.736,13.5872 32.10027,7.77493 48.5728,8.9568 20.29547,-12.16747 13.36,-37.75147 -8.1152,-44.04907 -5.33866,-10.37013 -40.1888,-30.5056 -19.8944,-37.248 9.73227,3.59574 13.744,18.61334 25.58507,15.69707 17.32053,0 34.64107,0 51.9616,0 5.53173,-8.43733 28.72533,-25.99893 21.25867,-5.38347 -13.47627,18.4992 -41.9488,29.75467 -45.52534,52.176 4.63467,24.43734 34.20587,17.36107 52.29974,18.7904 20.8768,3.2704 36.23146,-17.18506 45.19573,-32.38933 -14.224,-0.75093 -57.72267,-2.36907 -44.39573,-24.0416 13.4016,4.1536 31.28533,12.02453 44.69973,5.56587 6.3776,-19.4592 -12.304,-41.14667 -23.63093,-14.48214 -22.30507,3.8688 -1.77174,-21.7024 3.2768,-27.68426 -11.07947,-15.4464 -20.54614,-32.15254 -34.7392,-45.21494 -25.88054,-15.78773 23.7248,-35.2512 0.73813,-51.57653 -16.78933,-24.370243 20.99627,-30.762883 32.57067,-43.854084 3.72266,-16.30304 -26.82987,-55.528213 -35.13707,-27.675627 -6.2112,22.256 -27.1904,33.009918 -44.87467,15.943467 -17.08693,-5.380907 -32.24213,-15.055147 -46.97066,-24.82464 -15.4048,1.273493 -27.93387,14.759573 -43.71627,2.47072 -24.71787,-1.838187 -40.17493,19.55328 -59.34187,30.595413 -4.5152,15.782718 -22.288,14.542618 -17.99146,-2.86368 C 168.74133,42.239436 160.3296,26.940236 161.00693,8.786103 141.58976,-1.54834 109.64171,4.247223 116.89707,33.364876 c 0.99722,18.124053 7.42346,32.553387 24.65088,36.858031 16.35178,11.43584 -3.47264,24.83317 -10.18038,7.1105 -8.76021,6.6783 -5.60842,32.528963 -22.49237,40.144963 -12.632636,8.21654 -28.053969,32.9984 -8.10261,40.83414 13.40362,-5.64694 25.93237,-43.13387 40.5328,-28.36587 -5.80747,18.0128 -33.31328,24.37973 -33.04214,45.54347 -0.37941,26.12693 19.84331,-2.16854 30.92438,-2.54614 4.06442,20.74027 -25.59051,29.20747 -40.583466,34.98987 -12.300053,15.32693 22.249596,15.632 24.534506,32.21653 0.80565,26.92374 -26.861439,-22.66133 -40.499946,-3.4496 -12.591893,11.40694 -31.760341,30.128 -6.44096,40.66134 3.49824,13.86133 9.82592,24.624 21.61312,9.5776 19.203406,-7.93387 43.646926,-35.17014 55.916796,-4.11627 15.38165,17.78667 39.52139,27.77707 62.21045,30.86933 26.38614,0.14614 35.97654,31.72587 61.2,33.6224 19.32907,5.6896 32.4736,-11.2288 45.9872,-16.64106 7.99787,6.5088 15.728,16.3712 27.48587,13.34933 10.5568,-1.264 20.69547,1.38987 29.1328,5.05067 z m -160.61653,-102.064 c -11.9808,1.70986 -31.11467,-20.64214 -10.53227,-21.168 15.1936,17.61493 47.5648,-2.7744 58.37227,18.08746 -11.24587,8.62827 -33.7056,2.53654 -47.84,3.08054 z M 245.04,217.10077 c -14.8768,-9.664 -40.55147,-27.91466 -37.4336,-45.344 18.93547,14.0608 38.63573,28.5248 58.95253,38.6848 1.46667,11.4848 -15.01866,8.28587 -21.51893,6.6592 z m -3.77173,-64.64213 c -23.68534,-4.3936 -21.37174,-30.8192 -19.68854,-48.96853 5.264,-24.061873 42.16534,-29.401603 54.00854,-7.568323 7.9904,18.053653 7.98186,45.657923 -12.39467,56.010983 -6.75947,2.6912 -14.8896,1.51467 -21.92533,0.52587 z m 9.904,-16.94507 c -0.65067,-10.7264 3.7024,-24.46186 16.51093,-20.29013 10.20587,-6.50773 -8.71573,-29.379313 -22.04053,-23.449493 -13.76427,2.20832 -17.61707,21.070823 -15.80374,33.369493 -2.2336,8.064 4.24534,13.09973 8.5824,18.88 7.91467,-0.3264 15.6,2.8512 12.75094,-8.50987 z m 59.92213,12.81494 c -17.7792,-12.8 -15.49013,-45.82187 0.8544,-59.415043 24.49707,-19.06784 52.08427,12.186243 44.65813,37.729703 -0.31253,22.10027 -28.3584,33.19787 -45.51253,21.68534 z m 17.94453,-11.74827 c -0.39893,-10.49707 4.08747,-23.19787 16.37867,-19.22347 9.89547,-6.62186 -8.25387,-30.928213 -21.5712,-24.533223 -12.08213,1.31338 -18.29013,17.567893 -16.1408,28.844693 -2.40533,10.28693 4.512,21.94667 15.56587,22.3552 7.37813,1.42187 5.7056,-1.5456 5.76746,-7.4432 z M 216.3552,85.882207 c 2.30187,-21.561064 27.38347,-31.335891 47.0144,-32.159784 17.77173,13.919684 -24.9536,8.562346 -29.60533,21.333014 -5.24054,3.22432 -9.21707,17.22059 -17.40907,10.82677 z m 123.8688,-6.26432 c -7.57653,-8.07125 -46.50773,-9.13834 -31.92427,-22.712531 11.93067,5.002667 47.10187,7.809067 37.55627,25.109971 l -2.9856,-0.17258 z m 37.57653,-8.78826 c -4.352,-11.771098 23.3056,-34.301764 19.77067,-11.187951 -4.14827,4.701547 -13.19893,12.587631 -19.77067,11.187951 z M 147.23488,57.084983 c -22.12043,-0.698774 -4.15413,-44.071787 2.11445,-19.31488 -8.92501,7.045226 19.7408,22.455786 -2.11445,19.31488 z M 72.884058,312.08744 c 15.730133,-11.4656 -17.342614,-24.53013 -12.263467,-1.80373 2.35392,9.1776 7.24256,8.98453 12.263467,1.80373 z"
       inkscape:connector-curvature="0"
       style="fill:#000000;stroke-width:1.0346756" />
  </g>
</svg>
